<svg id="Group_94" data-name="Group 94" xmlns="http://www.w3.org/2000/svg" xmlns:xlink="http://www.w3.org/1999/xlink" width="29.006" height="29" viewBox="0 0 29.006 29">
  <defs>
    <clipPath id="clip-path">
      <rect id="Rectangle_51" data-name="Rectangle 51" width="29.006" height="29" fill="#fff"/>
    </clipPath>
  </defs>
  <g id="Group_93" data-name="Group 93" clip-path="url(#clip-path)">
    <path id="Path_138" data-name="Path 138" d="M21.694,0c.323.092.655.16.967.281a4.118,4.118,0,0,1,2.458,2.5.3.3,0,0,0,.346.232c.774-.009,1.548-.012,2.322,0A1.213,1.213,0,0,1,28.1,5.4a1.417,1.417,0,0,1-.363.038q-1.161,0-2.322,0c-.136,0-.222.02-.272.171a4.234,4.234,0,0,1-8.032-.072c-.009-.026-.021-.051-.04-.1H16.8c-5.087,0-10.174-.009-15.262.01A1.433,1.433,0,0,1,0,4.53V3.907c.018-.019.045-.034.053-.056a1.25,1.25,0,0,1,1.3-.845q7.284,0,14.569,0h1.158c.032-.075.059-.134.081-.195A4.143,4.143,0,0,1,19.674.266c.3-.115.629-.179.944-.267Zm1.25,4.232a1.8,1.8,0,1,0-1.794,1.8,1.784,1.784,0,0,0,1.794-1.8" transform="translate(0 0.001)" fill="#fff"/>
    <path id="Path_139" data-name="Path 139" d="M0,365.8a.588.588,0,0,0,.058-.09,1.2,1.2,0,0,1,1.225-.816H17.072c.047-.119.093-.238.141-.357a4.229,4.229,0,0,1,7.9.1.332.332,0,0,0,.382.26c.755-.013,1.51-.007,2.265,0a1.213,1.213,0,1,1,.034,2.425c-.783.014-1.566.008-2.35,0a.283.283,0,0,0-.322.224,4.227,4.227,0,0,1-7.955-.015c-.075-.208-.2-.207-.36-.207-5.068,0-10.135-.007-15.2.011A1.5,1.5,0,0,1,0,366.419V365.8m22.944.3a1.8,1.8,0,1,0-1.793,1.8,1.786,1.786,0,0,0,1.793-1.8" transform="translate(0 -341.327)" fill="#fff"/>
    <path id="Path_140" data-name="Path 140" d="M0,184.8a1.379,1.379,0,0,1,1.525-.941c.659.03,1.321,0,1.982.012a.346.346,0,0,0,.386-.265,4.129,4.129,0,0,1,3.8-2.752,4.184,4.184,0,0,1,4.131,2.757.332.332,0,0,0,.382.259q7.575-.008,15.149,0c.179,0,.359,0,.537.013a1.185,1.185,0,0,1,1.111,1.2,1.159,1.159,0,0,1-1.113,1.2c-.933.037-1.868.02-2.8.02q-6.414,0-12.827-.007a.407.407,0,0,0-.461.314,4.219,4.219,0,0,1-7.9-.051.334.334,0,0,0-.386-.261c-.66.013-1.322-.019-1.982.01A1.376,1.376,0,0,1,0,185.364Zm9.653.282a1.8,1.8,0,1,0-1.792,1.812,1.81,1.81,0,0,0,1.792-1.812" transform="translate(0 -170.581)" fill="#fff"/>
  </g>
</svg>
