<svg id="Group_59" data-name="Group 59" xmlns="http://www.w3.org/2000/svg" width="21.634" height="21.634" viewBox="0 0 21.634 21.634">
  <path id="Path_130" data-name="Path 130" d="M10.817-20A10.817,10.817,0,0,0,0-9.183,10.817,10.817,0,0,0,10.817,1.634,10.817,10.817,0,0,0,21.634-9.183a10.817,10.817,0,0,0-3.168-7.649A10.817,10.817,0,0,0,10.817-20ZM11.973-3.617h-2.3V-11.7h2.3ZM11.8-12.889a1.571,1.571,0,0,1-1.934,0,1.118,1.118,0,0,1-.4-.9,1.119,1.119,0,0,1,.4-.9,1.571,1.571,0,0,1,1.934,0,1.119,1.119,0,0,1,.4.9,1.118,1.118,0,0,1-.4.9Z" transform="translate(0 20)" fill="#fff" fill-rule="evenodd"/>
</svg>
