<svg xmlns="http://www.w3.org/2000/svg" width="22.535" height="21.496" viewBox="0 0 22.535 21.496">
  <path id="Path_134" data-name="Path 134" d="M7.71,6.914.6,7.7a.681.681,0,0,0-.568.463.668.668,0,0,0,.19.7c2.112,1.928,5.287,4.816,5.287,4.816s-.87,4.2-1.448,7a.68.68,0,0,0,.264.683.667.667,0,0,0,.725.038c2.488-1.414,6.215-3.541,6.215-3.541l6.212,3.542a.672.672,0,0,0,.993-.721c-.577-2.8-1.445-7-1.445-7S20.2,10.8,22.315,8.872a.68.68,0,0,0,.188-.707.671.671,0,0,0-.567-.46c-2.844-.318-7.109-.791-7.109-.791S13.058,3,11.882.4a.686.686,0,0,0-.617-.4.671.671,0,0,0-.61.4C9.476,3,7.71,6.914,7.71,6.914" fill="#fff"/>
</svg>
